# xmcd CD database file
#
# Track frame offsets:
#	150
#	17024
#	38284
#	53583
#	69982
#	83781
#	107584
#
# Disc length: 1688 seconds
#
# Revision: 0
# Processed by: cddbd v1.5.2PL0 Copyright (c) Steve Scherf et al.
# Submitted via: CDex 1.70beta2
#
DISCID=43069607
DTITLE=Pamela Mazzola - Miniatures
DYEAR=2001
DGENRE=Jazz
TTITLE0=Miniature
TTITLE1=Emozioni
TTITLE2=Grande, Grande, rande
TTITLE3=Rebecca's Song
TTITLE4=The Wedding Song
TTITLE5=Forever in Love
TTITLE6=Drifting, Dreaming
EXTD=YEAR: 2001
EXTT0=
EXTT1=
EXTT2=
EXTT3=
EXTT4=
EXTT5=
EXTT6=
PLAYORDER=
